<svg width="181" height="41" viewBox="0 0 181 41" fill="none" xmlns="http://www.w3.org/2000/svg">
<g clip-path="url(#clip0_378_438)">
<path d="M47.9994 6.46338H63.9343L54.5605 27.8492H63.3298V32.6365H47.2305L56.5663 11.3914H47.9994V6.46338Z" fill="black"/>
<path d="M71.2871 5.30748C71.7011 5.30112 72.112 5.38052 72.4935 5.5406C72.8749 5.70069 73.2187 5.93796 73.5028 6.2373C73.801 6.52955 74.0364 6.87892 74.1946 7.26424C74.3529 7.64957 74.4307 8.06281 74.4235 8.47892C74.4311 8.89044 74.3543 9.2992 74.1978 9.68028C74.0412 10.0614 73.8082 10.4067 73.5129 10.6954C73.2326 10.989 72.8942 11.2218 72.519 11.3792C72.1438 11.5366 71.7398 11.6152 71.3326 11.6101C70.9174 11.6152 70.5055 11.5351 70.123 11.3746C69.7404 11.2142 69.3953 10.977 69.1093 10.6778C68.6737 10.2401 68.3765 9.68534 68.2545 9.08188C68.1324 8.47842 68.1907 7.85265 68.4222 7.28172C68.6537 6.71078 69.0483 6.21964 69.5574 5.86883C70.0665 5.51803 70.6677 5.32289 71.2871 5.30748ZM68.8614 13.2738H73.7506V32.6241H68.8614V13.2738Z" fill="black"/>
<path d="M80.3927 13.2738H85.2794V15.2566C86.1797 14.4626 87.1963 13.8093 88.2944 13.3191C89.1701 12.9587 90.1085 12.7725 91.0564 12.7712C91.9709 12.7539 92.8792 12.9234 93.725 13.2692C94.5709 13.615 95.3362 14.1298 95.9735 14.7816C97.1066 15.9209 97.6732 17.6046 97.6732 19.8328V32.6241H92.8371V24.1603C92.8371 21.8483 92.7334 20.3137 92.526 19.5564C92.3658 18.8752 91.9823 18.2661 91.4358 17.8249C90.8814 17.4159 90.2037 17.206 89.5135 17.2293C88.5733 17.2168 87.6654 17.5704 86.9842 18.2144C86.2289 18.9571 85.7153 19.9078 85.5096 20.9436C85.3679 21.5467 85.2963 22.856 85.2946 24.8714V32.6367H80.3927V13.2738Z" fill="black"/>
<path d="M105.18 6.14429H110.07V13.2737H112.971V17.4604H110.082V32.6366H105.18V17.4604H102.676V13.2737H105.18V6.14429Z" fill="black"/>
<path d="M119.704 5.30752C120.116 5.30347 120.525 5.38396 120.904 5.54394C121.284 5.70393 121.626 5.93998 121.909 6.23734C122.207 6.52993 122.442 6.87937 122.6 7.26461C122.759 7.64985 122.837 8.06293 122.83 8.47896C122.838 8.89048 122.761 9.29924 122.604 9.68031C122.448 10.0614 122.215 10.4068 121.92 10.6954C121.639 10.989 121.301 11.2218 120.926 11.3792C120.55 11.5366 120.146 11.6153 119.739 11.6102C119.324 11.6153 118.912 11.5351 118.53 11.3747C118.147 11.2142 117.802 10.977 117.516 10.6779C117.08 10.24 116.783 9.685 116.661 9.08132C116.539 8.47763 116.598 7.85167 116.829 7.28064C117.061 6.70961 117.456 6.21849 117.966 5.86787C118.475 5.51725 119.077 5.32245 119.696 5.30752H119.704ZM117.26 13.2738H122.15V32.6241H117.26V13.2738Z" fill="black"/>
<path d="M137.182 12.771C139.001 12.7693 140.788 13.2452 142.362 14.1507C143.943 15.0246 145.255 16.3105 146.156 17.8699C147.055 19.4092 147.525 21.1589 147.517 22.9387C147.527 24.7363 147.058 26.5045 146.156 28.0628C145.277 29.6206 143.986 30.9102 142.422 31.7921C140.834 32.6876 139.035 33.1481 137.209 33.1265C135.876 33.1465 134.553 32.8937 133.322 32.384C132.091 31.8743 130.978 31.1186 130.054 30.1636C129.093 29.2282 128.334 28.1075 127.824 26.8703C127.315 25.6331 127.064 24.3055 127.09 22.9689C127.075 20.2894 128.129 17.7132 130.019 15.8026C131.91 13.892 134.485 12.8022 137.182 12.771ZM137.263 17.3422C136.554 17.3248 135.85 17.4562 135.196 17.7277C134.543 17.9993 133.954 18.4048 133.469 18.9179C132.457 19.9666 131.951 21.3069 131.951 22.9387C131.951 24.6258 132.45 25.9903 133.448 27.0324C133.934 27.5445 134.523 27.9488 135.177 28.2186C135.831 28.4885 136.535 28.6178 137.242 28.598C137.956 28.6161 138.665 28.4844 139.323 28.2116C139.982 27.9388 140.575 27.531 141.064 27.0148C142.076 25.9594 142.582 24.6006 142.582 22.9387C142.582 21.2768 142.089 19.9365 141.105 18.9179C140.612 18.403 140.014 17.998 139.352 17.7294C138.69 17.4608 137.977 17.3348 137.263 17.3598V17.3422Z" fill="black"/>
<path d="M151.144 13.2738H156.02V15.4978C156.794 14.6303 157.741 13.9335 158.802 13.4522C159.861 12.9906 161.006 12.7585 162.161 12.7712C163.319 12.7578 164.458 13.0659 165.45 13.6608C166.464 14.2921 167.283 15.1908 167.814 16.2568C168.535 15.1686 169.517 14.2763 170.673 13.6608C171.816 13.0634 173.091 12.7577 174.383 12.7712C175.665 12.7501 176.926 13.0862 178.025 13.7412C179.029 14.3235 179.824 15.2019 180.302 16.2542C180.762 17.2879 180.992 18.9633 180.992 21.2803V32.6241H176.073V22.8233C176.073 20.6303 175.798 19.1442 175.248 18.3652C174.699 17.5862 173.875 17.1975 172.777 17.1991C171.971 17.191 171.183 17.4412 170.531 17.9128C169.853 18.4077 169.338 19.0917 169.051 19.878C168.731 20.7157 168.57 22.056 168.568 23.8989V32.6241H163.644V23.2505C163.644 21.5199 163.515 20.2634 163.259 19.481C163.061 18.7959 162.653 18.1896 162.091 17.747C161.548 17.3594 160.892 17.159 160.224 17.1765C159.425 17.172 158.647 17.4251 158.006 17.8978C157.32 18.4072 156.802 19.1067 156.516 19.9082C156.179 20.7727 156.01 22.1364 156.01 23.9994V32.6241H151.144V13.2738Z" fill="black"/>
<path d="M6.3208 28.784C6.83707 29.1489 7.46664 29.3206 8.09806 29.2686C8.72949 29.2166 9.32204 28.9444 9.77083 28.5L16.0107 22.3029C16.2737 22.0627 16.4824 21.7699 16.6232 21.4437C16.764 21.1175 16.8337 20.7655 16.8277 20.4106C16.8378 20.0556 16.77 19.7026 16.6289 19.3762C16.4878 19.0499 16.2769 18.7579 16.0107 18.5208L9.79359 12.3463C9.34749 11.8975 8.75457 11.6219 8.12189 11.5694C7.4892 11.5168 6.85847 11.6908 6.34357 12.0598L4.86137 10.5872C5.59235 9.62219 5.72388 8.28023 4.60843 7.20466C2.1752 4.71928 -1.69723 8.56672 0.814415 10.9742C1.24004 11.4437 1.83164 11.732 2.4659 11.7788C3.10015 11.8256 3.72813 11.6274 4.21891 11.2255L5.68088 12.6981C5.30761 13.2089 5.13117 13.8357 5.18362 14.4647C5.23607 15.0937 5.51393 15.6832 5.96669 16.1259L10.302 20.4332L6.0021 24.7204C5.55128 25.1642 5.27457 25.7532 5.22171 26.3815C5.16886 27.0098 5.34333 27.6363 5.71376 28.1482L4.24168 29.6083C3.26788 28.882 1.91974 28.7513 0.834649 29.8596C-1.66434 32.2771 2.20808 36.1245 4.62867 33.6291C5.10127 33.2062 5.39137 32.6185 5.43849 31.9883C5.48561 31.3581 5.28612 30.7342 4.8816 30.2466L6.3208 28.784Z" fill="black"/>
<path d="M41.7139 29.8598C41.2875 29.3906 40.6956 29.1027 40.0611 29.0559C39.4266 29.0091 38.7984 29.207 38.3069 29.6085L36.8475 28.1584C37.2127 27.6441 37.3839 27.0185 37.3312 26.3912C37.2785 25.764 37.0051 25.1752 36.5591 24.7282L32.2238 20.4334L36.5591 16.1261C37.0104 15.6826 37.2874 15.0936 37.3403 14.4651C37.3932 13.8366 37.2184 13.2101 36.8475 12.6983L38.3069 11.2257C39.2807 11.952 40.6288 12.0826 41.7139 10.9744C44.2129 8.55685 40.3405 4.70941 37.9073 7.20485C37.4347 7.62772 37.1446 8.21551 37.0974 8.84567C37.0503 9.47584 37.2498 10.0998 37.6543 10.5874L36.1949 12.06C35.6798 11.6915 35.0492 11.5178 34.4166 11.5703C33.7841 11.6229 33.1912 11.8981 32.7449 12.3465L26.5176 18.5512C26.2545 18.7909 26.0455 19.0832 25.9043 19.4089C25.763 19.7346 25.6928 20.0863 25.6981 20.4409C25.6891 20.7946 25.7577 21.146 25.8992 21.4706C26.0408 21.7952 26.2518 22.0853 26.5176 22.3207L32.755 28.5178C33.2008 28.9671 33.7938 29.243 34.4266 29.2955C35.0595 29.3481 35.6903 29.1738 36.205 28.8043L37.6645 30.2543C36.936 31.2218 36.8019 32.5638 37.9174 33.6394C40.3405 36.1247 44.223 32.2798 41.7139 29.8598Z" fill="black"/>
<path d="M11.5187 4.82993L13.0009 6.27995C12.6297 6.7921 12.4549 7.41908 12.5077 8.04797C12.5606 8.67686 12.8377 9.26633 13.2892 9.71023L19.5266 15.9073C19.7681 16.1683 20.0624 16.3755 20.3902 16.5154C20.718 16.6553 21.0719 16.7247 21.4286 16.7191C21.7861 16.7296 22.1415 16.6625 22.4701 16.5223C22.7986 16.3821 23.0924 16.1722 23.3307 15.9073L29.5529 9.71023C30.0053 9.26686 30.2831 8.67727 30.336 8.0481C30.3889 7.41893 30.2134 6.79173 29.8412 6.27995L31.3007 4.82993C32.2745 5.5562 33.6251 5.68688 34.7077 4.57863C37.2067 2.1611 33.3368 -1.68634 30.9137 0.809094C30.4411 1.23197 30.151 1.81975 30.1039 2.44992C30.0567 3.08008 30.2562 3.70401 30.6608 4.19163L29.2013 5.64415C28.6873 5.27684 28.0584 5.10366 27.4274 5.1557C26.7965 5.20775 26.2049 5.48163 25.7589 5.92813L21.4059 10.2581L17.0706 5.95074C16.6243 5.50125 16.0309 5.22528 15.3977 5.17273C14.7644 5.12019 14.1331 5.29454 13.618 5.66426L12.1384 4.22681C12.8693 3.25929 13.0009 1.91985 11.8854 0.841764C9.45219 -1.6411 5.58229 2.20634 8.0914 4.6113C9.17396 5.70949 10.5474 5.5562 11.5187 4.82993Z" fill="black"/>
<path d="M31.2956 36.1925L29.8336 34.74C30.2016 34.2276 30.3752 33.6024 30.3238 32.9751C30.2724 32.3478 29.9993 31.7587 29.5529 31.3122L23.3104 25.0849C23.0687 24.8237 22.7739 24.6163 22.4457 24.4764C22.1174 24.3364 21.763 24.2672 21.4058 24.2732C21.0485 24.2631 20.6932 24.3305 20.3647 24.4707C20.0362 24.6109 19.7424 24.8205 19.5038 25.0849L13.2664 31.2896C12.8148 31.7335 12.5379 32.3232 12.4855 32.9522C12.433 33.5812 12.6086 34.2082 12.9806 34.7198L11.4984 36.1699C10.5246 35.4436 9.17392 35.3129 8.09136 36.4212C5.59236 38.8387 9.46226 42.6836 11.8854 40.1907C12.3576 39.7671 12.6474 39.1789 12.6945 38.5485C12.7416 37.9181 12.5424 37.2939 12.1383 36.8057L13.618 35.3556C14.1342 35.7206 14.7638 35.8922 15.3952 35.8403C16.0267 35.7883 16.6192 35.516 17.068 35.0717L21.4033 30.7618L25.7588 35.0717C26.205 35.5206 26.7981 35.796 27.431 35.8481C28.0638 35.9002 28.6944 35.7255 29.2089 35.3556L30.6683 36.8057C29.9373 37.7732 29.8058 39.1151 30.9212 40.1907C33.3545 42.6736 37.2269 38.8286 34.7153 36.4212C33.5998 35.3129 32.2669 35.4662 31.2956 36.1925Z" fill="black"/>
<path d="M21.2516 17.6213C20.6913 17.6213 20.1436 17.7864 19.6777 18.0957C19.2118 18.405 18.8488 18.8445 18.6343 19.3588C18.4199 19.8731 18.3638 20.439 18.4731 20.985C18.5824 21.531 18.8522 22.0325 19.2484 22.4261C19.6446 22.8198 20.1494 23.0878 20.6989 23.1964C21.2484 23.305 21.818 23.2493 22.3357 23.0363C22.8533 22.8232 23.2957 22.4625 23.607 21.9996C23.9183 21.5368 24.0844 20.9926 24.0844 20.4359C24.0861 20.068 24.0148 19.7033 23.8746 19.3627C23.7344 19.0221 23.5281 18.7123 23.2674 18.4509C23.0067 18.1895 22.6967 17.9818 22.3552 17.8394C22.0136 17.6971 21.6472 17.623 21.2769 17.6213H21.2516Z" fill="black"/>
</g>
<defs>
<clipPath id="clip0_378_438">
<rect width="181" height="41" fill="white"/>
</clipPath>
</defs>
</svg>
